<?xml version="1.0" encoding="UTF-8" standalone="no"?>
<!DOCTYPE svg PUBLIC "-//W3C//DTD SVG 1.1//EN" "http://www.w3.org/Graphics/SVG/1.1/DTD/svg11.dtd">
<svg width="100%" height="100%" viewBox="0 0 3104 631" version="1.1" xmlns="http://www.w3.org/2000/svg" xmlns:xlink="http://www.w3.org/1999/xlink" xml:space="preserve" xmlns:serif="http://www.serif.com/" style="fill-rule:evenodd;clip-rule:evenodd;stroke-linejoin:round;stroke-miterlimit:2;">
    <g transform="matrix(1,0,0,1,-1579.05,-6177.61)">
        <g transform="matrix(0.589537,0,0,0.418803,578.089,4867.65)">
            <path d="M1943.29,4324.38L1943.29,3542.29L2091.87,3542.29L2091.87,3679.4L2097.84,3679.4C2108.11,3630.9 2125.17,3594.18 2149.02,3569.23C2172.88,3544.28 2200.21,3531.8 2231.02,3531.8C2238.97,3531.8 2247.34,3532.38 2256.11,3533.55C2264.89,3534.72 2272.76,3536.7 2279.72,3539.49L2279.72,3731.17C2272.43,3727.9 2262.41,3725.22 2249.65,3723.12C2236.9,3721.03 2225.05,3719.98 2214.12,3719.98C2191.93,3719.98 2171.88,3726.86 2153.99,3740.61C2136.1,3754.37 2122.1,3773.49 2112,3797.97C2101.89,3822.46 2096.84,3850.56 2096.84,3882.27L2096.84,4324.38L1943.29,4324.38Z" style="fill:white;fill-rule:nonzero;"/>
            <path d="M2550.06,4339.77C2494.07,4339.77 2445.62,4322.86 2404.7,4289.05C2363.79,4255.24 2332.31,4208.14 2310.28,4147.74C2288.25,4087.35 2277.23,4017.05 2277.23,3936.83C2277.23,3855.69 2288.25,3784.92 2310.28,3724.52C2332.31,3664.13 2363.79,3617.03 2404.7,3583.22C2445.62,3549.41 2494.07,3532.5 2550.06,3532.5C2606.38,3532.5 2655,3549.41 2695.91,3583.22C2736.83,3617.03 2768.3,3664.13 2790.33,3724.52C2812.36,3784.92 2823.38,3855.69 2823.38,3936.83C2823.38,4017.05 2812.36,4087.35 2790.33,4147.74C2768.3,4208.14 2736.83,4255.24 2695.91,4289.05C2655,4322.86 2606.38,4339.77 2550.06,4339.77ZM2551.05,4170.48C2576.56,4170.48 2597.93,4160.34 2615.16,4140.05C2632.39,4119.76 2645.39,4091.9 2654.17,4056.45C2662.95,4021.01 2667.34,3980.67 2667.34,3935.43C2667.34,3889.73 2662.95,3849.39 2654.17,3814.41C2645.39,3779.44 2632.39,3751.92 2615.16,3731.87C2597.93,3711.82 2576.56,3701.79 2551.05,3701.79C2525.21,3701.79 2503.59,3711.82 2486.2,3731.87C2468.81,3751.92 2455.72,3779.44 2446.94,3814.41C2438.16,3849.39 2433.77,3889.73 2433.77,3935.43C2433.77,3980.67 2438.16,4021.01 2446.94,4056.45C2455.72,4091.9 2468.81,4119.76 2486.2,4140.05C2503.59,4160.34 2525.21,4170.48 2551.05,4170.48Z" style="fill:white;fill-rule:nonzero;"/>
            <path d="M3141.43,4339.77C3085.44,4339.77 3036.98,4322.86 2996.07,4289.05C2955.15,4255.24 2923.68,4208.14 2901.65,4147.74C2879.62,4087.35 2868.6,4017.05 2868.6,3936.83C2868.6,3855.69 2879.62,3784.92 2901.65,3724.52C2923.68,3664.13 2955.15,3617.03 2996.07,3583.22C3036.98,3549.41 3085.44,3532.5 3141.43,3532.5C3197.75,3532.5 3246.36,3549.41 3287.28,3583.22C3328.19,3617.03 3359.67,3664.13 3381.7,3724.52C3403.73,3784.92 3414.75,3855.69 3414.75,3936.83C3414.75,4017.05 3403.73,4087.35 3381.7,4147.74C3359.67,4208.14 3328.19,4255.24 3287.28,4289.05C3246.36,4322.86 3197.75,4339.77 3141.43,4339.77ZM3142.42,4170.48C3167.93,4170.48 3189.3,4160.34 3206.53,4140.05C3223.75,4119.76 3236.76,4091.9 3245.54,4056.45C3254.32,4021.01 3258.7,3980.67 3258.7,3935.43C3258.7,3889.73 3254.32,3849.39 3245.54,3814.41C3236.76,3779.44 3223.75,3751.92 3206.53,3731.87C3189.3,3711.82 3167.93,3701.79 3142.42,3701.79C3116.58,3701.79 3094.96,3711.82 3077.57,3731.87C3060.17,3751.92 3047.09,3779.44 3038.31,3814.41C3029.53,3849.39 3025.14,3889.73 3025.14,3935.43C3025.14,3980.67 3029.53,4021.01 3038.31,4056.45C3047.09,4091.9 3060.17,4119.76 3077.57,4140.05C3094.96,4160.34 3116.58,4170.48 3142.42,4170.48Z" style="fill:white;fill-rule:nonzero;"/>
            <path d="M3782.98,3542.29L3782.98,3705.99L3440.59,3705.99L3440.59,3542.29L3782.98,3542.29ZM3519.11,4324.38L3519.11,3485.63C3519.11,3429.2 3526.97,3382.33 3542.71,3345.02C3558.45,3307.72 3579.98,3279.73 3607.31,3261.08C3634.64,3242.43 3665.7,3233.1 3700.49,3233.1C3724.34,3233.1 3746.13,3235.78 3765.84,3241.14C3785.55,3246.51 3800.05,3251.05 3809.32,3254.78L3782.49,3417.08C3776.19,3414.74 3768.74,3412.41 3760.12,3410.08C3751.51,3407.75 3742.4,3406.58 3732.79,3406.58C3710.26,3406.58 3694.53,3413.93 3685.58,3428.62C3676.64,3443.31 3672.16,3463.95 3672.16,3490.53L3672.16,4324.38L3519.11,4324.38Z" style="fill:white;fill-rule:nonzero;"/>
            <path d="M4077.67,4339.77C4020.69,4339.77 3971.49,4323.44 3930.08,4290.8C3888.67,4258.15 3856.95,4211.63 3834.91,4151.24C3812.88,4090.85 3801.87,4019.38 3801.87,3936.83C3801.87,3856.62 3812.88,3786.2 3834.91,3725.57C3856.95,3664.95 3888.09,3617.61 3928.34,3583.57C3968.59,3549.52 4015.89,3532.5 4070.22,3532.5C4106.99,3532.5 4141.28,3540.78 4173.09,3557.33C4204.89,3573.89 4232.72,3598.61 4256.57,3631.48C4280.43,3664.36 4298.98,3705.64 4312.23,3755.3C4325.48,3804.97 4332.11,3863.15 4332.11,3929.84L4332.11,3988.6L3862.99,3988.6L3862.99,3854.99L4257.57,3854.99L4186.01,3889.96C4186.01,3850.32 4181.7,3815.81 4173.09,3786.43C4164.47,3757.05 4151.64,3734.32 4134.57,3718.23C4117.51,3702.14 4096.39,3694.09 4071.21,3694.09C4046.03,3694.09 4024.75,3702.25 4007.36,3718.58C3989.96,3734.9 3976.63,3757.05 3967.35,3785.03C3958.08,3813.01 3953.44,3845.19 3953.44,3881.57L3953.44,3976.01C3953.44,4018.45 3958.74,4054.7 3969.34,4084.79C3979.94,4114.86 3994.77,4137.95 4013.82,4154.04C4032.87,4170.13 4054.81,4178.17 4079.66,4178.17C4096.89,4178.17 4112.46,4174.68 4126.37,4167.68C4140.29,4160.69 4152.3,4150.43 4162.4,4136.9C4172.51,4123.38 4180.04,4107.05 4185.01,4087.93L4327.14,4101.22C4320.18,4149.26 4305.69,4191.11 4283.66,4226.79C4261.63,4262.47 4233.22,4290.22 4198.43,4310.04C4163.65,4329.86 4123.39,4339.77 4077.67,4339.77Z" style="fill:white;fill-rule:nonzero;"/>
            <path d="M4551.26,3872.47L4551.26,4324.38L4397.71,4324.38L4397.71,3542.29L4548.78,3542.29L4548.78,3681.5L4554.25,3681.5C4566.84,3635.33 4586.88,3598.96 4614.38,3572.37C4641.87,3545.79 4676.33,3532.5 4717.74,3532.5C4756.17,3532.5 4789.72,3544.39 4818.37,3568.18C4847.03,3591.96 4869.31,3625.77 4885.21,3669.61C4901.11,3713.45 4909.07,3765.91 4909.07,3827.01L4909.07,4324.38L4755.51,4324.38L4755.51,3865.48C4755.51,3817.91 4746.73,3780.49 4729.17,3753.2C4711.61,3725.92 4687.43,3712.28 4656.62,3712.28C4636.08,3712.28 4617.86,3718.69 4601.95,3731.52C4586.05,3744.34 4573.63,3762.65 4564.68,3786.43C4555.74,3810.22 4551.26,3838.9 4551.26,3872.47Z" style="fill:white;fill-rule:nonzero;"/>
            <path d="M5247.98,4633.57C5173.11,4633.57 5114.47,4612.7 5072.06,4570.96C5029.66,4529.22 5003.82,4477.34 4994.54,4415.32L5136.67,4388.73C5140.97,4404.59 5147.77,4419.28 5157.04,4432.81C5166.32,4446.33 5178.74,4457.17 5194.31,4465.33C5209.88,4473.49 5228.93,4477.57 5251.46,4477.57C5284.92,4477.57 5312.59,4466.27 5334.45,4443.65C5356.32,4421.03 5367.25,4382.9 5367.25,4329.27L5367.25,4185.87L5360.79,4185.87C5354.16,4207.32 5344.06,4227.84 5330.48,4247.43C5316.89,4267.01 5299.5,4282.87 5278.3,4295C5257.09,4307.12 5231.75,4313.18 5202.26,4313.18C5160.52,4313.18 5122.67,4299.54 5088.71,4272.26C5054.75,4244.98 5027.59,4203.12 5007.21,4146.69C4986.84,4090.26 4976.65,4018.91 4976.65,3932.64C4976.65,3843.56 4987,3769.41 5007.71,3710.18C5028.42,3650.95 5055.83,3606.53 5089.95,3576.92C5124.08,3547.31 5161.52,3532.5 5202.26,3532.5C5233.41,3532.5 5259.5,3539.85 5280.53,3554.53C5301.57,3569.23 5318.72,3587.53 5331.97,3609.45C5345.22,3631.37 5355.16,3653.05 5361.78,3674.51L5367.75,3674.51L5367.75,3542.29L5519.32,3542.29L5519.32,4332.77C5519.32,4398.99 5507.72,4454.49 5484.53,4499.26C5461.34,4544.03 5429.37,4577.61 5388.62,4599.99C5347.87,4622.38 5300.99,4633.57 5247.98,4633.57ZM5250.97,4150.19C5288.07,4150.19 5316.81,4130.84 5337.19,4092.13C5357.56,4053.42 5367.75,3999.79 5367.75,3931.24C5367.75,3885.53 5363.19,3845.78 5354.08,3811.97C5344.97,3778.15 5331.8,3751.81 5314.57,3732.92C5297.35,3714.03 5276.14,3704.59 5250.97,3704.59C5225.79,3704.59 5204.5,3714.26 5187.11,3733.62C5169.71,3752.97 5156.55,3779.67 5147.6,3813.71C5138.65,3847.76 5134.18,3886.93 5134.18,3931.24C5134.18,3976.01 5138.65,4014.83 5147.6,4047.71C5156.55,4080.59 5169.71,4105.89 5187.11,4123.61C5204.5,4141.33 5225.79,4150.19 5250.97,4150.19Z" style="fill:white;fill-rule:nonzero;"/>
            <path d="M5609.76,4324.38L5609.76,3542.29L5763.32,3542.29L5763.32,4324.38L5609.76,4324.38ZM5686.29,3442.26C5663.43,3442.26 5643.89,3431.53 5627.65,3410.08C5611.42,3388.63 5603.3,3362.74 5603.3,3332.43C5603.3,3302.12 5611.42,3276.35 5627.65,3255.13C5643.89,3233.91 5663.43,3223.3 5686.29,3223.3C5709.48,3223.3 5729.19,3233.91 5745.43,3255.13C5761.66,3276.35 5769.78,3302.12 5769.78,3332.43C5769.78,3362.74 5761.66,3388.63 5745.43,3410.08C5729.19,3431.53 5709.48,3442.26 5686.29,3442.26Z" style="fill:white;fill-rule:nonzero;"/>
            <path d="M6007.32,3872.47L6007.32,4324.38L5853.76,4324.38L5853.76,3542.29L6004.83,3542.29L6004.83,3681.5L6010.3,3681.5C6022.89,3635.33 6042.93,3598.96 6070.43,3572.37C6097.93,3545.79 6132.38,3532.5 6173.8,3532.5C6212.23,3532.5 6245.77,3544.39 6274.43,3568.18C6303.09,3591.96 6325.36,3625.77 6341.27,3669.61C6357.17,3713.45 6365.12,3765.91 6365.12,3827.01L6365.12,4324.38L6211.56,4324.38L6211.56,3865.48C6211.56,3817.91 6202.78,3780.49 6185.23,3753.2C6167.67,3725.92 6143.48,3712.28 6112.67,3712.28C6092.13,3712.28 6073.91,3718.69 6058.01,3731.52C6042.11,3744.34 6029.68,3762.65 6020.74,3786.43C6011.79,3810.22 6007.32,3838.9 6007.32,3872.47Z" style="fill:white;fill-rule:nonzero;"/>
            <path d="M6708.51,4339.77C6651.53,4339.77 6602.33,4323.44 6560.92,4290.8C6519.51,4258.15 6487.78,4211.63 6465.75,4151.24C6443.72,4090.85 6432.7,4019.38 6432.7,3936.83C6432.7,3856.62 6443.72,3786.2 6465.75,3725.57C6487.78,3664.95 6518.93,3617.61 6559.18,3583.57C6599.43,3549.52 6646.72,3532.5 6701.06,3532.5C6737.83,3532.5 6772.12,3540.78 6803.92,3557.33C6835.73,3573.89 6863.56,3598.61 6887.41,3631.48C6911.27,3664.36 6929.82,3705.64 6943.07,3755.3C6956.32,3804.97 6962.95,3863.15 6962.95,3929.84L6962.95,3988.6L6493.83,3988.6L6493.83,3854.99L6888.4,3854.99L6816.85,3889.96C6816.85,3850.32 6812.54,3815.81 6803.92,3786.43C6795.31,3757.05 6782.47,3734.32 6765.41,3718.23C6748.35,3702.14 6727.23,3694.09 6702.05,3694.09C6676.87,3694.09 6655.59,3702.25 6638.19,3718.58C6620.8,3734.9 6607.47,3757.05 6598.19,3785.03C6588.91,3813.01 6584.27,3845.19 6584.27,3881.57L6584.27,3976.01C6584.27,4018.45 6589.57,4054.7 6600.18,4084.79C6610.78,4114.86 6625.6,4137.95 6644.65,4154.04C6663.7,4170.13 6685.65,4178.17 6710.5,4178.17C6727.73,4178.17 6743.3,4174.68 6757.21,4167.68C6771.13,4160.69 6783.14,4150.43 6793.24,4136.9C6803.35,4123.38 6810.88,4107.05 6815.85,4087.93L6957.98,4101.22C6951.02,4149.26 6936.53,4191.11 6914.49,4226.79C6892.46,4262.47 6864.06,4290.22 6829.27,4310.04C6794.48,4329.86 6754.23,4339.77 6708.51,4339.77Z" style="fill:white;fill-rule:nonzero;"/>
        </g>
        <g transform="matrix(0.610286,-0.20306,0.315711,0.948855,-919.078,1628.19)">
            <path d="M1766.6,5201.53C1766.6,5179.47 1738.76,5161.56 1704.46,5161.56L1468.04,5161.56C1433.74,5161.56 1405.9,5179.47 1405.9,5201.53C1405.9,5223.59 1433.74,5241.5 1468.04,5241.5L1704.46,5241.5C1738.76,5241.5 1766.6,5223.59 1766.6,5201.53Z" style="fill:rgb(0,208,133);"/>
        </g>
        <g transform="matrix(0.643182,-2.77556e-17,-1.66533e-16,1,819.48,1016.05)">
            <path d="M1766.6,5201.53C1766.6,5179.47 1738.76,5161.56 1704.46,5161.56L1468.04,5161.56C1433.74,5161.56 1405.9,5179.47 1405.9,5201.53C1405.9,5223.59 1433.74,5241.5 1468.04,5241.5L1704.46,5241.5C1738.76,5241.5 1766.6,5223.59 1766.6,5201.53Z" style="fill:rgb(0,208,133);"/>
        </g>
    </g>
</svg>
